<svg width="130" height="22" viewBox="0 0 130 22" fill="none" xmlns="http://www.w3.org/2000/svg">
<path d="M0 11.0998C0 4.9998 3.3 1.2998 8.7 1.2998C12.8 1.2998 16.1 3.7998 16.7 7.4998C16.8 7.8998 16.5 8.1998 16.1 8.1998H13.5C13.2 8.1998 13 7.9998 12.9 7.6998C12.4 5.7998 10.8 4.5998 8.7 4.5998C5.8 4.5998 4 7.0998 4 11.0998C4 15.0998 5.8 17.5998 8.8 17.5998C10.9 17.5998 12.4 16.4998 13 14.6998C13.1 14.3998 13.3 14.1998 13.6 14.1998H16.2C16.6 14.1998 16.9 14.5998 16.8 14.8998C16.2 18.4998 13 20.8998 8.8 20.8998C3.3 20.8998 0 17.0998 0 11.0998Z" fill="white"/>
<path d="M24.3004 20.3998H21.4004C21.1004 20.3998 20.9004 20.1998 20.9004 19.8998V2.5998C20.9004 2.1998 21.3004 1.7998 21.7004 1.7998H28.7004C32.8004 1.7998 35.3004 4.0998 35.3004 7.6998C35.3004 9.7998 34.3004 11.6998 32.6004 12.6998C32.2004 12.8998 32.1004 13.3998 32.3004 13.6998L35.4004 19.5998C35.6004 19.8998 35.3004 20.2998 35.0004 20.2998H31.7004C31.5004 20.2998 31.3004 20.1998 31.2004 19.9998L28.3004 13.9998C28.2004 13.6998 27.9004 13.5998 27.6004 13.5998H25.3004C25.0004 13.5998 24.8004 13.7998 24.8004 14.0998V19.9998C24.9004 20.1998 24.6004 20.3998 24.3004 20.3998ZM24.9004 10.1998C24.9004 10.4998 25.1004 10.6998 25.4004 10.6998H28.4004C30.4004 10.6998 31.5004 9.5998 31.5004 7.7998C31.5004 5.9998 30.3004 4.8998 28.4004 4.8998H25.5004C25.2004 4.8998 25.0004 5.0998 25.0004 5.3998V10.1998H24.9004Z" fill="white"/>
<path d="M51.4988 20.3998H40.4988C40.0988 20.3998 39.7988 20.0998 39.7988 19.6998V2.4998C39.7988 2.0998 40.0988 1.7998 40.4988 1.7998H51.4988C51.8988 1.7998 52.1988 2.0998 52.1988 2.4998V4.3998C52.1988 4.7998 51.8988 5.0998 51.4988 5.0998H44.1988C43.8988 5.0998 43.6988 5.2998 43.6988 5.5998V8.9998C43.6988 9.2998 43.8988 9.4998 44.1988 9.4998H50.9988C51.3988 9.4998 51.6988 9.7998 51.6988 10.1998V11.8998C51.6988 12.2998 51.3988 12.5998 50.9988 12.5998H44.1988C43.8988 12.5998 43.6988 12.7998 43.6988 13.0998V16.8998C43.6988 17.1998 43.8988 17.3998 44.1988 17.3998H51.4988C51.8988 17.3998 52.1988 17.6998 52.1988 18.0998V19.9998C52.1988 20.0998 51.8988 20.3998 51.4988 20.3998Z" fill="white"/>
<path d="M67.0006 15.8998H61.3006C61.0006 15.8998 60.8006 16.0998 60.7006 16.2998L59.6006 19.9998C59.5006 20.2998 59.3006 20.3998 59.0006 20.3998H56.4006C56.0006 20.3998 55.7006 19.9998 55.8006 19.5998L61.8006 2.1998C61.9006 1.9998 62.1006 1.7998 62.4006 1.7998H66.1006C66.4006 1.7998 66.6006 1.9998 66.7006 2.1998L72.7006 19.5998C72.8006 19.9998 72.5006 20.3998 72.1006 20.3998H69.2006C68.9006 20.3998 68.7006 20.1998 68.6006 19.9998L67.5006 16.2998C67.5006 16.0998 67.2006 15.8998 67.0006 15.8998ZM62.1006 12.9998H66.2006C66.4006 12.9998 66.5006 12.7998 66.5006 12.5998L64.3006 5.5998H64.1006L61.9006 12.5998C61.8006 12.7998 61.9006 12.9998 62.1006 12.9998Z" fill="white"/>
<path d="M79.0008 19.7002V5.5002C79.0008 5.2002 78.8008 5.0002 78.5008 5.0002H74.1008C73.7008 5.0002 73.3008 4.7002 73.3008 4.2002V2.5002C73.3008 2.1002 73.6008 1.7002 74.1008 1.7002H87.7008C88.1008 1.7002 88.5008 2.0002 88.5008 2.5002V4.2002C88.5008 4.6002 88.2008 5.0002 87.7008 5.0002H83.3008C83.0008 5.0002 82.8008 5.2002 82.8008 5.5002V19.8001C82.8008 20.2001 82.5008 20.5002 82.1008 20.5002H79.6008C79.3008 20.4001 79.0008 20.1002 79.0008 19.7002Z" fill="white"/>
<path d="M103.8 20.3998H92.7996C92.3996 20.3998 92.0996 20.0998 92.0996 19.6998V2.4998C92.0996 2.0998 92.3996 1.7998 92.7996 1.7998H103.8C104.2 1.7998 104.5 2.0998 104.5 2.4998V4.3998C104.5 4.7998 104.2 5.0998 103.8 5.0998H96.4996C96.1996 5.0998 95.9996 5.2998 95.9996 5.5998V8.9998C95.9996 9.2998 96.1996 9.4998 96.4996 9.4998H103.3C103.7 9.4998 104 9.7998 104 10.1998V11.8998C104 12.2998 103.7 12.5998 103.3 12.5998H96.4996C96.1996 12.5998 95.9996 12.7998 95.9996 13.0998V16.8998C95.9996 17.1998 96.1996 17.3998 96.4996 17.3998H103.8C104.2 17.3998 104.5 17.6998 104.5 18.0998V19.9998C104.5 20.0998 104.2 20.3998 103.8 20.3998Z" fill="white"/>
<path d="M117.701 9.7L111.501 1.6C111.101 1.2 110.601 1 110.101 1C109.601 1 109.101 1.2 108.701 1.6C108.001 2.4 108.001 3.6 108.701 4.4L113.601 11L108.701 17.6C108.001 18.4 108.001 19.6 108.701 20.4C109.101 20.8 109.601 21 110.101 21C110.601 21 111.101 20.8 111.501 20.4L117.701 12.3C118.401 11.7 118.401 10.5 117.701 9.7Z" fill="#7772F1"/>
<path d="M120.343 9.7L126.543 1.6C126.943 1.2 127.443 1 127.943 1C128.443 1 128.943 1.2 129.343 1.6C130.043 2.4 130.043 3.6 129.343 4.4L124.443 11L129.343 17.6C130.043 18.4 130.043 19.6 129.343 20.4C128.943 20.8 128.443 21 127.943 21C127.443 21 126.943 20.8 126.543 20.4L120.343 12.3C119.643 11.7 119.643 10.5 120.343 9.7Z" fill="#7772F1"/>
</svg>
